<?xml version="1.0" encoding="UTF-8" standalone="no"?>
<!DOCTYPE svg PUBLIC "-//W3C//DTD SVG 1.1//EN"
 "http://www.w3.org/Graphics/SVG/1.1/DTD/svg11.dtd">
<!-- Generated by graphviz version 2.43.0 (0)
 -->
<!-- Title: ERD Pages: 1 -->
<svg width="1041pt" height="862pt"
 viewBox="0.00 0.00 1041.20 862.20" xmlns="http://www.w3.org/2000/svg" xmlns:xlink="http://www.w3.org/1999/xlink">
<g id="graph0" class="graph" transform="scale(1 1) rotate(0) translate(21.6 840.6)">
<title>ERD</title>
<polygon fill="white" stroke="transparent" points="-21.6,21.6 -21.6,-840.6 1019.6,-840.6 1019.6,21.6 -21.6,21.6"/>
<!-- stores -->
<g id="node1" class="node">
<title>stores</title>
<polygon fill="#7f77dd" stroke="transparent" points="9,-469 9,-488 149,-488 149,-469 9,-469"/>
<text text-anchor="start" x="54" y="-475.8" font-family="Helvetica,sans-Serif" font-weight="bold" font-size="14.00" fill="white">stores</text>
<text text-anchor="start" x="11" y="-455.8" font-family="Helvetica,sans-Serif" font-size="14.00">id (PK)</text>
<text text-anchor="start" x="11" y="-436.8" font-family="Helvetica,sans-Serif" font-size="14.00">name</text>
<text text-anchor="start" x="11" y="-417.8" font-family="Helvetica,sans-Serif" font-size="14.00">owner_name</text>
<text text-anchor="start" x="11" y="-398.8" font-family="Helvetica,sans-Serif" font-size="14.00">address</text>
<text text-anchor="start" x="11" y="-379.8" font-family="Helvetica,sans-Serif" font-size="14.00">whatsapp_number</text>
<text text-anchor="start" x="11" y="-360.8" font-family="Helvetica,sans-Serif" font-size="14.00">email</text>
<text text-anchor="start" x="11" y="-341.8" font-family="Helvetica,sans-Serif" font-size="14.00">auth_user_id</text>
<text text-anchor="start" x="11" y="-322.8" font-family="Helvetica,sans-Serif" font-size="14.00">subscription_status</text>
<text text-anchor="start" x="11" y="-303.8" font-family="Helvetica,sans-Serif" font-size="14.00">activated_at</text>
<text text-anchor="start" x="11" y="-284.8" font-family="Helvetica,sans-Serif" font-size="14.00">expires_at</text>
<text text-anchor="start" x="11" y="-265.8" font-family="Helvetica,sans-Serif" font-size="14.00">created_at</text>
<polygon fill="none" stroke="#7f77dd" points="8,-259 8,-489 150,-489 150,-259 8,-259"/>
</g>
<!-- store_users -->
<g id="node2" class="node">
<title>store_users</title>
<polygon fill="#1d9e75" stroke="transparent" points="306,-421 306,-440 401,-440 401,-421 306,-421"/>
<text text-anchor="start" x="308" y="-427.8" font-family="Helvetica,sans-Serif" font-weight="bold" font-size="14.00" fill="white">store_users</text>
<text text-anchor="start" x="308" y="-407.8" font-family="Helvetica,sans-Serif" font-size="14.00">id (PK)</text>
<text text-anchor="start" x="308" y="-388.8" font-family="Helvetica,sans-Serif" font-size="14.00">store_id (FK)</text>
<text text-anchor="start" x="308" y="-369.8" font-family="Helvetica,sans-Serif" font-size="14.00">auth_user_id</text>
<text text-anchor="start" x="308" y="-350.8" font-family="Helvetica,sans-Serif" font-size="14.00">name</text>
<text text-anchor="start" x="308" y="-331.8" font-family="Helvetica,sans-Serif" font-size="14.00">role</text>
<text text-anchor="start" x="308" y="-312.8" font-family="Helvetica,sans-Serif" font-size="14.00">created_at</text>
<polygon fill="none" stroke="#1d9e75" points="304.5,-306.5 304.5,-441.5 401.5,-441.5 401.5,-306.5 304.5,-306.5"/>
</g>
<!-- stores&#45;&gt;store_users -->
<g id="edge1" class="edge">
<title>stores&#45;&gt;store_users</title>
<path fill="none" stroke="#5f5e5a" d="M158.31,-374C199.83,-374 250.15,-374 289.09,-374"/>
<polygon fill="#5f5e5a" stroke="#5f5e5a" points="289.23,-376.45 296.23,-374 289.23,-371.55 289.23,-376.45"/>
<text text-anchor="middle" x="217" y="-377" font-family="Helvetica,sans-Serif" font-size="10.00">1 &#45; banyak</text>
</g>
<!-- activation_codes -->
<g id="node3" class="node">
<title>activation_codes</title>
<polygon fill="#1d9e75" stroke="transparent" points="285,-138 285,-157 421,-157 421,-138 285,-138"/>
<text text-anchor="start" x="287" y="-144.8" font-family="Helvetica,sans-Serif" font-weight="bold" font-size="14.00" fill="white">activation_codes</text>
<text text-anchor="start" x="287" y="-124.8" font-family="Helvetica,sans-Serif" font-size="14.00">id (PK)</text>
<text text-anchor="start" x="287" y="-105.8" font-family="Helvetica,sans-Serif" font-size="14.00">store_id (FK)</text>
<text text-anchor="start" x="287" y="-86.8" font-family="Helvetica,sans-Serif" font-size="14.00">code</text>
<text text-anchor="start" x="287" y="-67.8" font-family="Helvetica,sans-Serif" font-size="14.00">status</text>
<text text-anchor="start" x="287" y="-48.8" font-family="Helvetica,sans-Serif" font-size="14.00">generated_at</text>
<text text-anchor="start" x="287" y="-29.8" font-family="Helvetica,sans-Serif" font-size="14.00">used_at</text>
<text text-anchor="start" x="287" y="-10.8" font-family="Helvetica,sans-Serif" font-size="14.00">valid_until</text>
<polygon fill="none" stroke="#1d9e75" points="284,-4 284,-158 422,-158 422,-4 284,-4"/>
</g>
<!-- stores&#45;&gt;activation_codes -->
<g id="edge2" class="edge">
<title>stores&#45;&gt;activation_codes</title>
<path fill="none" stroke="#5f5e5a" d="M151.01,-254.77C163.43,-237.35 176.92,-220.18 191,-205 214.41,-179.76 243.36,-155.75 270.22,-135.7"/>
<polygon fill="#5f5e5a" stroke="#5f5e5a" points="271.75,-137.62 275.92,-131.48 268.84,-133.68 271.75,-137.62"/>
<text text-anchor="middle" x="217" y="-208" font-family="Helvetica,sans-Serif" font-size="10.00">1 &#45; banyak</text>
</g>
<!-- products -->
<g id="node4" class="node">
<title>products</title>
<polygon fill="#d85a30" stroke="transparent" points="297,-741 297,-760 410,-760 410,-741 297,-741"/>
<text text-anchor="start" x="318.5" y="-747.8" font-family="Helvetica,sans-Serif" font-weight="bold" font-size="14.00" fill="white">products</text>
<text text-anchor="start" x="299" y="-727.8" font-family="Helvetica,sans-Serif" font-size="14.00">id (PK)</text>
<text text-anchor="start" x="299" y="-708.8" font-family="Helvetica,sans-Serif" font-size="14.00">store_id (FK)</text>
<text text-anchor="start" x="299" y="-689.8" font-family="Helvetica,sans-Serif" font-size="14.00">name</text>
<text text-anchor="start" x="299" y="-670.8" font-family="Helvetica,sans-Serif" font-size="14.00">category</text>
<text text-anchor="start" x="299" y="-651.8" font-family="Helvetica,sans-Serif" font-size="14.00">unit</text>
<text text-anchor="start" x="299" y="-632.8" font-family="Helvetica,sans-Serif" font-size="14.00">sku</text>
<text text-anchor="start" x="299" y="-613.8" font-family="Helvetica,sans-Serif" font-size="14.00">cost_price</text>
<text text-anchor="start" x="299" y="-594.8" font-family="Helvetica,sans-Serif" font-size="14.00">sell_price</text>
<text text-anchor="start" x="299" y="-575.8" font-family="Helvetica,sans-Serif" font-size="14.00">current_stock</text>
<text text-anchor="start" x="299" y="-556.8" font-family="Helvetica,sans-Serif" font-size="14.00">min_stock_alert</text>
<text text-anchor="start" x="299" y="-537.8" font-family="Helvetica,sans-Serif" font-size="14.00">image_url</text>
<text text-anchor="start" x="299" y="-518.8" font-family="Helvetica,sans-Serif" font-size="14.00">is_active</text>
<text text-anchor="start" x="299" y="-499.8" font-family="Helvetica,sans-Serif" font-size="14.00">created_at</text>
<polygon fill="none" stroke="#d85a30" points="295.5,-493 295.5,-761 410.5,-761 410.5,-493 295.5,-493"/>
</g>
<!-- stores&#45;&gt;products -->
<g id="edge3" class="edge">
<title>stores&#45;&gt;products</title>
<path fill="none" stroke="#5f5e5a" d="M158.31,-446.84C197.2,-483.01 243.82,-526.38 281.57,-561.49"/>
<polygon fill="#5f5e5a" stroke="#5f5e5a" points="280.28,-563.64 287.08,-566.61 283.62,-560.05 280.28,-563.64"/>
<text text-anchor="middle" x="217" y="-526" font-family="Helvetica,sans-Serif" font-size="10.00">1 &#45; banyak</text>
</g>
<!-- stock_movements -->
<g id="node5" class="node">
<title>stock_movements</title>
<polygon fill="#d85a30" stroke="transparent" points="563.5,-723 563.5,-742 708.5,-742 708.5,-723 563.5,-723"/>
<text text-anchor="start" x="565.5" y="-729.8" font-family="Helvetica,sans-Serif" font-weight="bold" font-size="14.00" fill="white">stock_movements</text>
<text text-anchor="start" x="565.5" y="-709.8" font-family="Helvetica,sans-Serif" font-size="14.00">id (PK)</text>
<text text-anchor="start" x="565.5" y="-690.8" font-family="Helvetica,sans-Serif" font-size="14.00">store_id (FK)</text>
<text text-anchor="start" x="565.5" y="-671.8" font-family="Helvetica,sans-Serif" font-size="14.00">product_id (FK)</text>
<text text-anchor="start" x="565.5" y="-652.8" font-family="Helvetica,sans-Serif" font-size="14.00">type</text>
<text text-anchor="start" x="565.5" y="-633.8" font-family="Helvetica,sans-Serif" font-size="14.00">quantity_change</text>
<text text-anchor="start" x="565.5" y="-614.8" font-family="Helvetica,sans-Serif" font-size="14.00">cost_price</text>
<text text-anchor="start" x="565.5" y="-595.8" font-family="Helvetica,sans-Serif" font-size="14.00">note</text>
<text text-anchor="start" x="565.5" y="-576.8" font-family="Helvetica,sans-Serif" font-size="14.00">created_by (FK)</text>
<text text-anchor="start" x="565.5" y="-557.8" font-family="Helvetica,sans-Serif" font-size="14.00">created_at</text>
<polygon fill="none" stroke="#d85a30" points="562,-551 562,-743 709,-743 709,-551 562,-551"/>
</g>
<!-- stores&#45;&gt;stock_movements -->
<g id="edge5" class="edge">
<title>stores&#45;&gt;stock_movements</title>
<path fill="none" stroke="#5f5e5a" d="M100.75,-493.12C124.72,-590.77 174.71,-722.95 276,-787 362,-841.38 472.54,-781.52 548,-724.1"/>
<polygon fill="#5f5e5a" stroke="#5f5e5a" points="549.77,-725.83 553.82,-719.62 546.78,-721.94 549.77,-725.83"/>
<text text-anchor="middle" x="353" y="-811" font-family="Helvetica,sans-Serif" font-size="10.00">1 &#45; banyak</text>
</g>
<!-- transactions -->
<g id="node6" class="node">
<title>transactions</title>
<polygon fill="#d4537e" stroke="transparent" points="563.5,-382 563.5,-401 707.5,-401 707.5,-382 563.5,-382"/>
<text text-anchor="start" x="586" y="-388.8" font-family="Helvetica,sans-Serif" font-weight="bold" font-size="14.00" fill="white">transactions</text>
<text text-anchor="start" x="565.5" y="-368.8" font-family="Helvetica,sans-Serif" font-size="14.00">id (PK)</text>
<text text-anchor="start" x="565.5" y="-349.8" font-family="Helvetica,sans-Serif" font-size="14.00">store_id (FK)</text>
<text text-anchor="start" x="565.5" y="-330.8" font-family="Helvetica,sans-Serif" font-size="14.00">transaction_number</text>
<text text-anchor="start" x="565.5" y="-311.8" font-family="Helvetica,sans-Serif" font-size="14.00">cashier_id (FK)</text>
<text text-anchor="start" x="565.5" y="-292.8" font-family="Helvetica,sans-Serif" font-size="14.00">payment_method</text>
<text text-anchor="start" x="565.5" y="-273.8" font-family="Helvetica,sans-Serif" font-size="14.00">total_amount</text>
<text text-anchor="start" x="565.5" y="-254.8" font-family="Helvetica,sans-Serif" font-size="14.00">status</text>
<text text-anchor="start" x="565.5" y="-235.8" font-family="Helvetica,sans-Serif" font-size="14.00">created_at</text>
<polygon fill="none" stroke="#d4537e" points="562.5,-229.5 562.5,-402.5 708.5,-402.5 708.5,-229.5 562.5,-229.5"/>
</g>
<!-- stores&#45;&gt;transactions -->
<g id="edge4" class="edge">
<title>stores&#45;&gt;transactions</title>
<path fill="none" stroke="#5f5e5a" d="M158.41,-321.09C192.91,-300.87 234.88,-280.23 276,-270 367.14,-247.32 474.25,-266.88 547.51,-287.05"/>
<polygon fill="#5f5e5a" stroke="#5f5e5a" points="547.09,-289.47 554.49,-289 548.41,-284.75 547.09,-289.47"/>
<text text-anchor="middle" x="353" y="-273" font-family="Helvetica,sans-Serif" font-size="10.00">1 &#45; banyak</text>
</g>
<!-- store_users&#45;&gt;stock_movements -->
<g id="edge10" class="edge">
<title>store_users&#45;&gt;stock_movements</title>
<path fill="none" stroke="#5f5e5a" d="M409.75,-428.26C449.44,-466.89 503.53,-519.53 548.7,-563.49"/>
<polygon fill="#5f5e5a" stroke="#5f5e5a" points="547.15,-565.41 553.88,-568.53 550.57,-561.9 547.15,-565.41"/>
<text text-anchor="middle" x="492" y="-537" font-family="Helvetica,sans-Serif" font-size="10.00">mencatat</text>
</g>
<!-- store_users&#45;&gt;transactions -->
<g id="edge9" class="edge">
<title>store_users&#45;&gt;transactions</title>
<path fill="none" stroke="#5f5e5a" d="M409.75,-362.47C449.03,-354.35 502.41,-343.31 547.29,-334.03"/>
<polygon fill="#5f5e5a" stroke="#5f5e5a" points="548.06,-336.38 554.41,-332.56 547.06,-331.58 548.06,-336.38"/>
<text text-anchor="middle" x="492" y="-353" font-family="Helvetica,sans-Serif" font-size="10.00">memproses</text>
</g>
<!-- products&#45;&gt;stock_movements -->
<g id="edge6" class="edge">
<title>products&#45;&gt;stock_movements</title>
<path fill="none" stroke="#5f5e5a" d="M418.7,-631.61C456.71,-634.32 505.27,-637.79 546.69,-640.74"/>
<polygon fill="#5f5e5a" stroke="#5f5e5a" points="546.65,-643.19 553.81,-641.25 547,-638.3 546.65,-643.19"/>
<text text-anchor="middle" x="492" y="-641" font-family="Helvetica,sans-Serif" font-size="10.00">1 &#45; banyak</text>
</g>
<!-- transaction_items -->
<g id="node7" class="node">
<title>transaction_items</title>
<polygon fill="#d4537e" stroke="transparent" points="844.5,-462 844.5,-481 989.5,-481 989.5,-462 844.5,-462"/>
<text text-anchor="start" x="846.5" y="-468.8" font-family="Helvetica,sans-Serif" font-weight="bold" font-size="14.00" fill="white">transaction_items</text>
<text text-anchor="start" x="846.5" y="-448.8" font-family="Helvetica,sans-Serif" font-size="14.00">id (PK)</text>
<text text-anchor="start" x="846.5" y="-429.8" font-family="Helvetica,sans-Serif" font-size="14.00">transaction_id (FK)</text>
<text text-anchor="start" x="846.5" y="-410.8" font-family="Helvetica,sans-Serif" font-size="14.00">product_id (FK)</text>
<text text-anchor="start" x="846.5" y="-391.8" font-family="Helvetica,sans-Serif" font-size="14.00">product_name</text>
<text text-anchor="start" x="846.5" y="-372.8" font-family="Helvetica,sans-Serif" font-size="14.00">quantity</text>
<text text-anchor="start" x="846.5" y="-353.8" font-family="Helvetica,sans-Serif" font-size="14.00">price_at_sale</text>
<text text-anchor="start" x="846.5" y="-334.8" font-family="Helvetica,sans-Serif" font-size="14.00">subtotal</text>
<polygon fill="none" stroke="#d4537e" points="843,-328 843,-482 990,-482 990,-328 843,-328"/>
</g>
<!-- products&#45;&gt;transaction_items -->
<g id="edge7" class="edge">
<title>products&#45;&gt;transaction_items</title>
<path fill="none" stroke="#5f5e5a" d="M418.86,-585.98C457.14,-562.97 507.14,-534.97 554,-515 644.62,-476.37 753.3,-445.22 827.68,-426.05"/>
<polygon fill="#5f5e5a" stroke="#5f5e5a" points="828.6,-428.35 834.77,-424.24 827.38,-423.6 828.6,-428.35"/>
<text text-anchor="middle" x="635.5" y="-518" font-family="Helvetica,sans-Serif" font-size="10.00">1 &#45; banyak</text>
</g>
<!-- transactions&#45;&gt;transaction_items -->
<g id="edge8" class="edge">
<title>transactions&#45;&gt;transaction_items</title>
<path fill="none" stroke="#5f5e5a" d="M716.82,-341.62C751.54,-352.7 792.25,-365.68 827.75,-377.01"/>
<polygon fill="#5f5e5a" stroke="#5f5e5a" points="827.36,-379.46 834.78,-379.25 828.85,-374.79 827.36,-379.46"/>
<text text-anchor="middle" x="776" y="-371" font-family="Helvetica,sans-Serif" font-size="10.00">1 &#45; banyak</text>
</g>
</g>
</svg>
